<svg width="111.99999999999999" height="111.99999999999999" xmlns="http://www.w3.org/2000/svg">

 <g>
  <title>background</title>
  <rect fill="none" id="canvas_background" height="402" width="582" y="-1" x="-1"/>
 </g>
 <g>
  <title>Layer 1</title>
  <path id="svg_2" fill="#96db21" d="m41.6667,5.33334c-0.4445,0.44445 0.6111,0.38886 0.6666,0.33332c0.4444,-0.44441 -0.6111,-0.3889 -0.6666,-0.33332z"/>
  <path id="svg_3" fill="#e7f0b5" d="m43,5l1,1l-1,-1z"/>
  <path stroke="null" id="svg_4" fill="#c6ed95" d="m39.895021,6.33334c-0.88678,0.44445 1.219147,0.38887 1.32987,0.33332c0.88678,-0.44442 -1.219147,-0.38888 -1.32987,-0.33332z"/>
  <path id="svg_5" fill="#ecf1c7" d="m42,6l0,2l2,0c-0.5451,-1.63516 -0.3648,-1.45495 -2,-2z"/>
  <path id="svg_6" fill="#85d504" d="m43,6l1,1l-1,-1z"/>
  <path id="svg_7" fill="#e1e574" d="m53,6c1.2483,0.6848 1.5484,0.74879 3,1c-1.2483,-0.6848 -1.5484,-0.74879 -3,-1z"/>
  <path id="svg_8" fill="#eff2b8" d="m56,6l0,2c1.6351,-0.54505 1.455,-0.36486 2,-2l-2,0z"/>
  <path stroke="null" id="svg_9" fill="#fda4a3" d="m107.793258,6c-1.977306,1.777223 -2.005381,1.446235 -2.005381,3.606061c2.584936,-1.734047 2.809539,-1.482981 2.005381,-3.606061z"/>
  <path id="svg_10" fill="#66e6c6" d="m6,7l1,1l-1,-1z"/>
  <path id="svg_11" fill="#8dd919" d="m40,7l1,1l-1,-1z"/>
  <path id="svg_12" fill="#fcfcf1" d="m41.3333,7.66666c-0.0555,0.05553 -0.1111,1.11114 0.3334,0.66668c0.0556,-0.05559 0.1111,-1.1111 -0.3334,-0.66668z"/>
  <path id="svg_13" fill="#aecd04" d="m44,7l1,4c0.393,-1.924 0.1456,-2.35955 -1,-4z"/>
  <path id="svg_14" fill="#eaeda4" d="m53.6667,7.33334c-0.4445,0.44445 0.6111,0.38886 0.6666,0.33332c0.4444,-0.44441 -0.6111,-0.3889 -0.6666,-0.33332z"/>
  <path id="svg_15" fill="#dedf59" d="m57,7l-2,3c2.5089,-0.40907 2.7754,-0.72928 4,-3l-2,0z"/>
  <path stroke="null" style="vector-effect: non-scaling-stroke;" id="svg_16" fill="#fc2e2d" d="m106.333,7.66666c-0.055,0.05556 -0.111,1.1111 0.334,0.66668c0.055,-0.05556 0.111,-1.11112 -0.334,-0.66668z"/>
  <path id="svg_17" fill="#fd8f8e" d="m109,7c-0.218,1.68647 -0.224,2.31614 0,4c0.71,-1.75948 0.71,-2.24052 0,-4z"/>
  <path id="svg_18" fill="#fac9c4" d="m110,7l1,1l-1,-1z"/>
  <path stroke="null" id="svg_19" fill="#0bd8a4" d="m4.39394,8c0.723744,10.935178 9.933382,10.353188 15.676108,17.585144c2.549692,3.211097 2.584022,6.887676 2.618998,10.804585l10.761828,-3.275738c0.835656,2.32763 1.216302,3.025472 3.228548,4.367651c-4.765445,-12.587897 -19.156699,-26.470147 -32.285483,-29.481642z"/>
  <path stroke="null" id="svg_20" fill="#e6f4c7" d="m36.47658,6.757764l0,6.242236c2.345796,-1.674293 3.757214,-3.000143 5.52342,-4.993789l-5.52342,-1.248447z"/>
  <path id="svg_21" fill="#c5e87a" d="m40,8l1,1l-1,-1z"/>
  <path id="svg_22" fill="#c0d750" d="m42,8l0,3c0.6961,-1.55372 0.6961,-1.4463 0,-3z"/>
  <path id="svg_23" fill="#ffffff" d="m43,8l0,3c0.6961,-1.55371 0.6961,-1.4463 0,-3z"/>
  <path id="svg_24" fill="#cfd022" d="m47,8c1.2228,1.19518 1.42,1.31643 3,2c-1.2228,-1.19518 -1.42,-1.31642 -3,-2z"/>
  <path stroke="null" id="svg_25" fill="#fc8b87" d="m101,7.255178l-2,4.744822c2.644,-0.378755 3.058,-1.801965 2,-4.744822z"/>
  <path id="svg_26" fill="#fda6a3" d="m103.667,8.33334c-0.445,0.44443 0.611,0.38887 0.666,0.33332c0.445,-0.44443 -0.611,-0.3889 -0.666,-0.33332z"/>
  <path id="svg_27" fill="#feeeee" d="m108,8l1,1l-1,-1z"/>
  <path id="svg_28" fill="#fa504d" d="m110,8l1,1l-1,-1z"/>
  <path stroke="null" id="svg_29" fill="#0bd7c7" d="m4.053002,9c-4.007935,9.967326 3.088397,11.930009 9.411913,17.74493c3.261999,2.999689 5.262002,7.051053 9.444178,8.5278c-0.099099,-11.439256 -6.081508,-11.866078 -13.420257,-18.212804c-2.525941,-2.184577 -3.774088,-5.212947 -5.435834,-8.059926z"/>
  <path id="svg_30" fill="#e0f7cf" d="m27,9c1.506,0.68304 2.3148,0.82589 4,1c-1.506,-0.68303 -2.3148,-0.82589 -4,-1z"/>
  <path id="svg_31" fill="#d5f2b6" d="m31,9c2.3315,0.98453 4.4567,0.98125 7,1c-2.3316,-0.98453 -4.4567,-0.98125 -7,-1z"/>
  <path stroke="null" id="svg_32" fill="#d8c70b" d="m42.189531,6.708449c0.017461,4.690662 0.523817,8.421097 2.530515,12.764337l6.616561,-5.801972c0.020371,3.824702 -0.207655,8.483178 4.770752,11.603943c-0.253937,-2.806646 -0.34377,-5.32737 0,-8.12276c4.772424,10.845161 9.890768,14.793982 22.774628,16.245519c-0.065667,-2.933824 -0.351235,-5.31681 -1.265257,-8.122759l-2.530514,0c-0.710822,2.089406 -1.042699,3.622518 -1.265257,5.801971c3.965738,-9.348729 -9.565217,-13.99273 -18.978857,-18.566308l2.530515,-1.160394c-4.539996,-3.334161 -9.607098,-3.687605 -15.183086,-4.641577z"/>
  <path id="svg_33" fill="#fc4f4e" d="m102,10c1.103,1.4566 1.543,1.8966 3,3l1,-3c-1.687,-0.21826 -2.316,-0.22388 -4,0z"/>
  <path id="svg_34" fill="#fefcfa" d="m104,9l1,1l-1,-1z"/>
  <path id="svg_35" fill="#fc7d7b" d="m105,9l1,1l-1,-1z"/>
  <path stroke="null" id="svg_36" fill="#fd0000" d="m96.919146,15.746121l4.544373,-5.200665l-2.593913,-2.697203c-7.451827,1.393008 -13.956319,1.373752 -20.181418,1.390962c4.352755,8.355403 17.319235,11.025529 20.466361,20.561651c3.753232,0.818475 4.497874,2.05034 4.617941,6.017315c1.959161,-1.572806 3.432284,-2.894569 5.772425,-3.610389c0.48424,-9.129833 -0.220896,-19.472639 -0.72707,-27.78243c-1.171803,1.371226 -1.938636,3.245622 -2.736385,4.91663l-3.178512,-3.465251z"/>
  <path id="svg_37" fill="#fc514f" d="m107,9l1,1l-1,-1z"/>
  <path id="svg_39" fill="#4cd8de" d="m3,10l1,1l-1,-1z"/>
  <path id="svg_40" fill="#b6f3e4" d="m11,10l1,1l-1,-1z"/>
  <path id="svg_41" fill="#96eec6" d="m17,10c1.2484,0.6848 1.5484,0.7488 3,1c-1.2484,-0.6848 -1.5484,-0.7488 -3,-1z"/>
  <path transform="rotate(-1.413627028465271 23.761127471923356,22.633966445922887) " stroke="null" id="svg_42" fill="#0ad779" d="m9.999993,8.885714c3.363917,6.177778 10.310939,10.007239 15.67007,14.894858c4.661088,4.250846 7.748959,9.194145 11.842887,13.747337c0.170711,-5.304076 -2.0167,-10.647335 -5.757152,-14.893942c-4.418581,-5.016509 -10.247004,-8.09291 -9.964538,-14.893942l-11.791267,1.145688z"/>
  <path stroke="null" id="svg_43" fill="#7ad80b" d="m19.679417,7.925551c3.213109,9.628186 10.824483,16.356733 14.502393,26.032973c5.243994,-2.44332 4.900225,-2.928172 3.107656,-5.423536c8.064656,1.576171 14.600077,2.307497 21.753589,3.254121l-4.143541,-6.508243c-8.04717,-0.376285 -10.357091,-12.923885 -12.430622,-19.601126c-1.119896,1.581503 -1.632773,-0.464337 -0.03984,3.758277c2.895363,-0.52552 1.115215,-5.237603 -6.175471,-2.597174c-5.53111,0 -11.243499,-0.56523 -16.574164,1.084708z"/>
  <path id="svg_44" fill="#95c50e" d="m41,10c0.0313,1.8318 -0.0795,1.5587 1,3c-0.2512,-1.4516 -0.3152,-1.7517 -1,-3z"/>
  <path id="svg_45" fill="#e1bc3d" d="m55.3333,10.6667c-0.0555,0.0555 -0.1111,1.1111 0.3334,0.6666c0.0555,-0.0555 0.1111,-1.1111 -0.3334,-0.6666z"/>
  <path id="svg_46" fill="#f2d4a9" d="m68,10l1,1l-1,-1z"/>
  <path id="svg_47" fill="#fcc7c3" d="m98,10c1.2484,0.6848 1.5484,0.7488 3,1c-1.2483,-0.6848 -1.5484,-0.7488 -3,-1z"/>
  <path id="svg_48" fill="#fec9c8" d="m107,10l1,1l-1,-1z"/>
  <path id="svg_49" fill="#fb2727" d="m108.333,10.6667c-0.055,0.0555 -0.111,1.1111 0.334,0.6666c0.055,-0.0555 0.111,-1.1111 -0.334,-0.6666z"/>
  <path stroke="null" id="svg_50" fill="#f2eda8" d="m45.790191,14.915606c-0.236628,1.972186 -1.481452,-7.697879 -3.45138,-5.815106l1.7364,-2.412165l-0.805196,0.700194z"/>
  <path id="svg_51" fill="#f5ecca" d="m58.6667,11.3333c-0.4445,0.4445 0.6111,0.3889 0.6666,0.3334c0.4444,-0.4444 -0.6111,-0.3889 -0.6666,-0.3334z"/>
  <path stroke="null" id="svg_52" fill="#dd880f" d="m61.451343,7.894412c3.0661,7.065301 6.505182,11.308548 13.685168,15.552794l0,-2.221828c7.741948,7.547549 14.271018,13.487383 24.882124,17.774622c-0.674554,-7.894265 -7.7575,-12.388023 -16.173381,-13.330966l0,-4.443655c-2.23541,0 -1.892908,0.015886 -3.732319,1.110914c-1.956481,-4.226805 -6.246782,-6.753912 -7.464637,-11.109139c-4.064246,-0.517575 -7.396087,-2.004755 -11.196956,-3.332742z"/>
  <path id="svg_53" fill="#e8b468" d="m69,11l1,1l-1,-1z"/>
  <path id="svg_54" fill="#fea4a4" d="m105,11l1,1l-1,-1z"/>
  <path id="svg_55" fill="#2ad858" d="m23.3333,12.6667c-0.0555,0.0555 -0.1111,1.1111 0.3334,0.6666c0.0555,-0.0555 0.1111,-1.1111 -0.3334,-0.6666z"/>
  <path id="svg_56" fill="#cfde5c" d="m40,12l1,1l-1,-1z"/>
  <path transform="rotate(-1.221235752105713 74.22679901123044,28.400011062622365) " stroke="null" id="svg_57" fill="#d8ad0b" d="m49.579328,7.558825c6.037714,7.235308 11.912208,13.759477 15.38945,22.892189c1.059383,-1.867491 3.091727,-5.027459 3.722931,-7.095386l0.862645,-1.870187l1.146394,6.215298l6.722069,-0.770077c4.190979,13.0872 3.383533,15.925596 1.766085,23.131332l5.92864,-1.71342l3.439182,-9.064389c2.117046,0.238394 3.603575,0.219812 5.73197,0c-0.030952,4.580349 3.878137,0.226157 4.585576,-2.266097c-10.166336,-4.546017 -15.595085,-11.668587 -24.074274,-18.128777l0,2.266097c-2.833427,-2.581538 -6.178834,-4.954595 -8.501543,-8.015299c-1.227902,-1.618107 -1.816003,-4.08294 -3.632005,-5.190495c-3.275592,-1.997905 -9.538342,-1.07753 -13.08712,-0.390789z"/>
  <path id="svg_58" fill="#e2c65a" d="m61,12l1,1l-1,-1z"/>
  <path id="svg_59" fill="#ecd88e" d="m65,12l1,1l-1,-1z"/>
  <path id="svg_60" fill="#eec68d" d="m70,12l1,1l-1,-1z"/>
  <path id="svg_61" fill="#f5dcc6" d="m80,12c1.769,0.7789 3.0359,0.9124 5,1c-1.769,-0.7789 -3.0359,-0.9124 -5,-1z"/>
  <path id="svg_62" fill="#e9ae7f" d="m85,12c1.2484,0.6848 1.5484,0.7488 3,1c-1.2484,-0.6848 -1.5484,-0.7488 -3,-1z"/>
  <path id="svg_63" fill="#f24426" d="m88,12c2.6127,1.0977 5.1645,0.9928 8,1c-2.6127,-1.0977 -5.1645,-0.9928 -8,-1z"/>
  <path id="svg_64" fill="#fb413d" d="m97,12l1,1l-1,-1z"/>
  <path id="svg_65" fill="#fca6a3" d="m98,12l1,1l-1,-1z"/>
  <path id="svg_67" fill="#a9d8f2" d="m1,13l1,1l-1,-1z"/>
  <path id="svg_68" fill="#ebbe7b" d="m71,13l1,1l-1,-1z"/>
  <path id="svg_69" fill="#f1d6a6" d="m74,13c1.2483,0.6848 1.5484,0.7488 3,1c-1.2484,-0.6848 -1.5484,-0.7488 -3,-1z"/>
  <path id="svg_70" fill="#d96d26" d="m77.6667,13.3333c-0.4445,0.4445 0.6111,0.3889 0.6666,0.3334c0.4445,-0.4445 -0.6111,-0.3889 -0.6666,-0.3334z"/>
  <path stroke="null" id="svg_71" fill="#d84a0b" d="m64.788653,9.645026l2.177069,3.277111c0.76963,1.272087 5.93476,4.478848 8.126892,8.059146l3.420752,-1.130573l0,4.52229c9.535916,2.05312 11.604454,10.828928 12.770475,20.182155c3.189281,-1.353861 8.319601,-7.013585 10.034538,-10.007002l3.420751,1.130573c-0.429874,-4.475711 -0.428734,-7.819492 -4.561002,-10.175153l-1.140251,3.391718c-3.830672,-12.312501 -20.890846,-24.83925 -34.249224,-19.250265z"/>
  <path stroke="null" id="svg_72" fill="#0a8cd6" d="m1.140052,14c-1.650734,7.2408 -1.320985,18.9201 8.595848,22c1.873502,-5.7981 -2.614992,-8.1091 -5.579909,-13c-1.744208,-2.8772 -1.511629,-6.1087 -3.015939,-9z"/>
  <path id="svg_74" fill="#ffffff" d="m111,14l0,5c0.83,-2.0305 0.83,-2.9695 0,-5z"/>
  <path id="svg_75" fill="#46d73e" d="m24,15l1,1l-1,-1z"/>
  <path stroke="null" id="svg_76" fill="#d5d70a" d="m48.526708,7.513519c-4.612112,7.40351 -3.376751,19.682338 6.578769,18.001727c1.702322,4.121495 2.78374,6.04138 6.578769,7.50072l1.315754,-6.000576c-3.616876,-4.37607 -5.591296,-9.099273 -6.578769,-15.001439c-2.24915,3.657201 -1.932316,6.089834 -1.315754,10.501007c-4.394486,-4.824613 -4.355408,-9.037167 -6.578769,-15.001439z"/>
  <path id="svg_77" fill="#75bae8" d="m0,16l1,1l-1,-1z"/>
  <path stroke="null" id="svg_78" fill="#0bc4d8" d="m1.090909,12.454542c0.470417,10.674802 7.185442,24.062077 16.697834,24.333335c0.799237,-12.674192 -8.558819,-18.413382 -16.697834,-24.333335z"/>
  <path stroke="null" id="svg_80" fill="#e62c05" d="m93.097242,16.920174c2.817466,7.126397 4.330592,8.617411 7.48331,10.433964c-2.817653,-7.126397 -4.330592,-8.617411 -7.48331,-10.433964z"/>
  <path id="svg_82" fill="#7da5ea" d="m0.33333,25.6667c-0.05555,0.0555 -0.1111,1.1111 0.33334,0.6666c0.05555,-0.0555 0.11112,-1.1111 -0.33334,-0.6666z"/>
  <path stroke="null" id="svg_83" fill="#0a52d7" d="m0.924242,19.939387l-0.772727,14.303036l3.090908,-1.589226c-0.678933,-4.354957 -1.258525,-8.709437 -2.318181,-12.71381z"/>
  <path id="svg_84" fill="#e92904" d="m102,26l0,5c1.205,-2.0976 1.143,-2.8455 0,-5z"/>
  <path id="svg_86" fill="#b6eb88" d="m62,29l0,2c1.6352,-0.5451 1.4549,-0.3648 2,-2l-2,0z"/>
  <path id="svg_87" fill="#2fd755" d="m35.3333,30.6667c-0.0555,0.0555 -0.1111,1.1111 0.3334,0.6666c0.0555,-0.0555 0.1111,-1.1111 -0.3334,-0.6666z"/>
  <path stroke="null" id="svg_88" fill="#65d613" d="m35.562956,27.936182c3.880174,5.049387 9.720748,3.877305 15.363644,3.882352c-4.813088,-2.318735 -10.229797,-2.488199 -15.363644,-3.882352z"/>
  <path id="svg_90" fill="#d8cb33" d="m64,30c1.506,0.683 2.3148,0.8259 4,1c-1.506,-0.683 -2.3148,-0.8259 -4,-1z"/>
  <path id="svg_91" fill="#ebe48a" d="m68,30l1,1l-1,-1z"/>
  <path id="svg_93" fill="#fecfd0" d="m110,30l1,1l-1,-1z"/>
  <path id="svg_94" fill="#93eddb" d="m29,31c1.2484,0.6848 1.5484,0.7488 3,1c-1.2484,-0.6848 -1.5484,-0.7488 -3,-1z"/>
  <path id="svg_96" fill="#ece685" d="m71.6667,31.3333c-0.4445,0.4445 0.6111,0.3889 0.6666,0.3334c0.4445,-0.4445 -0.6111,-0.3889 -0.6666,-0.3334z"/>
  <path stroke="null" id="svg_97" fill="#fd6160" d="m108.854862,31c1.248,1.181752 1.548,1.292196 3,1.72569c-1.248,-1.181752 -1.548,-1.292196 -3,-1.72569z"/>
  <path id="svg_98" fill="#b4f3ea" d="m27,32l1,1l-1,-1z"/>
  <path stroke="null" id="svg_99" fill="#6de6b5" d="m40,32c1.500482,0.6848 1.861208,0.7488 3.606061,1c-1.500602,-0.6848 -1.861208,-0.7488 -3.606061,-1z"/>
  <path id="svg_100" fill="#a8efbf" d="m43.6667,32.3333c-0.4445,0.4445 0.6111,0.3889 0.6666,0.3334c0.4445,-0.4445 -0.6111,-0.3889 -0.6666,-0.3334z"/>
  <path stroke="null" id="svg_101" fill="#ccf5d6" d="m42.103619,29.387517c4.991627,3.546343 6.191153,3.877777 11.99526,5.178656c-4.991627,-3.546343 -6.191153,-3.877777 -11.99526,-5.178656z"/>
  <path id="svg_102" fill="#8ee9a2" d="m48,32c1.769,0.7789 3.0359,0.9124 5,1c-1.769,-0.7789 -3.0359,-0.9124 -5,-1z"/>
  <path id="svg_103" fill="#dbf8e7" d="m53,32c1.506,0.683 2.3148,0.8259 4,1c-1.506,-0.683 -2.3148,-0.8259 -4,-1z"/>
  <path id="svg_104" fill="#a0e56b" d="m57,32l1,1l-1,-1z"/>
  <path id="svg_105" fill="#d85f0a" d="m95,32c1.4856,2.0286 2.3591,3.5754 3,6c1.241,-3.2637 0.2305,-4.93 -3,-6z"/>
  <path id="svg_107" fill="#fc1b1b" d="m108.693759,31.419448l1,1l-1,-1z"/>
  <path id="svg_108" fill="#fda9a9" d="m111,32l1,1l-1,-1z"/>
  <path id="svg_109" fill="#c0f5eb" d="m20.6667,33.3333c-0.4445,0.4445 0.6111,0.3889 0.6666,0.3334c0.4445,-0.4445 -0.6111,-0.3889 -0.6666,-0.3334z"/>
  <path id="svg_110" fill="#aff2e3" d="m25,33l1,1l-1,-1z"/>
  <path id="svg_111" fill="#80ead9" d="m32,33l1,1l-1,-1z"/>
  <path id="svg_112" fill="#aff2d4" d="m39,33l1,1l-1,-1z"/>
  <path id="svg_113" fill="#d8c80b" d="m79,32.696969l-4,4c1.9551,4.9877 4.9265,8.5756 6,14l5,-0.854862c3.105838,-2.716731 -2.854641,-1.184214 -4.306241,-1.435414c2.0833,-5.089 0.509441,-11.411424 -2.693759,-15.709724z"/>
  <path id="svg_114" fill="#ff5558" d="m108,33l1,1l-1,-1z"/>
  <path id="svg_115" fill="#fda6a6" d="m110,33l1,1l-1,-1z"/>
  <path stroke="null" transform="rotate(17.643312454223633 109.6162567138672,33.69013977050777) " id="svg_116" fill="#fc0000" d="m109.341486,32.341657l0,2.696969c0.732736,-1.39676 0.732736,-1.300209 0,-2.696969z"/>
  <path id="svg_117" fill="#91e4ed" d="m19,34l0,3c0.6961,-1.5537 0.6961,-1.4463 0,-3z"/>
  <path id="svg_118" fill="#7be9cd" d="m22.6667,34.3333c-0.4445,0.4445 0.6111,0.3889 0.6666,0.3334c0.4445,-0.4445 -0.6111,-0.3889 -0.6666,-0.3334z"/>
  <path id="svg_119" fill="#a7edb1" d="m38,34l1,1l-1,-1z"/>
  <path stroke="null" id="svg_120" fill="#eb0800" d="m108,33.255178l0,3.290276c0.308968,-1.704034 0.308968,-1.586242 0,-3.290276z"/>
  <path id="svg_121" fill="#76b9e9" d="m5,35l1,1l-1,-1z"/>
  <path id="svg_122" fill="#69e8d4" d="m34,35l1,1l-1,-1z"/>
  <path id="svg_123" fill="#9ef0dd" d="m36,35l1,1l-1,-1z"/>
  <path id="svg_124" fill="#e9e976" d="m73.6667,35.3333c-0.4445,0.4445 0.6111,0.3889 0.6666,0.3334c0.4445,-0.4445 -0.6111,-0.3889 -0.6666,-0.3334z"/>
  <path id="svg_125" fill="#ffbbbc" d="m109,35l1,1l-1,-1z"/>
  <path id="svg_126" fill="#d6d80b" d="m74.757577,36.454546l-5,4c3.1396,4.3692 7.2805,8.3844 12,11c-0.7863,-6.0361 -3.3592,-10.2032 -7,-15z"/>
  <path id="svg_127" fill="#e3db4e" d="m75.6667,36.3333c-0.4445,0.4445 0.6111,0.3889 0.6666,0.3334c0.4445,-0.4445 -0.6111,-0.3889 -0.6666,-0.3334z"/>
  <path stroke="null" style="vector-effect: non-scaling-stroke;" id="svg_128" fill="#f31109" d="m103.984035,33.677793c0.943091,1.899192 0.529372,1.845955 2.757576,3.606061l0,-3.606061l-2.757576,0z"/>
  <path id="svg_129" fill="#f84f49" d="m109,36l1,1l-1,-1z"/>
  <path id="svg_130" fill="#fc4c4c" d="m111,36l1,1l-1,-1z"/>
  <path id="svg_131" fill="#67dae6" d="m12,37l1,1l-1,-1z"/>
  <path id="svg_132" fill="#f4fae0" d="m67,37l-1,5c1.475,-1.9352 1.791,-2.6927 1,-5z"/>
  <path stroke="null" style="vector-effect: non-scaling-stroke;" id="svg_133" fill="#f9b1ab" d="m106.709724,37c1.248,0.6848 1.838276,0.7488 3.290276,1c-1.248,-0.6848 -1.838276,-0.7488 -3.290276,-1z"/>
  <path stroke="null" id="svg_134" fill="#51d5e3" d="m12.939393,36.484847c1.905445,1.71785 2.928574,2.077265 5.060607,2.515153c-1.905319,-1.71785 -2.928574,-2.077265 -5.060607,-2.515153z"/>
  <path stroke="null" id="svg_135" fill="#e50800" d="m104.406176,33.910629c-1.822097,2.196931 -2.138243,1.787858 -2.138243,4.457756c2.382031,-2.143586 2.879279,-1.833178 2.138243,-4.457756z"/>
  <path id="svg_136" fill="#fc8e88" d="m105,38l1,1l-1,-1z"/>
  <path id="svg_137" fill="#f4f3b7" d="m68.6667,39.3333c-0.4445,0.4445 0.6111,0.3889 0.6666,0.3334c0.4445,-0.4445 -0.6111,-0.3889 -0.6666,-0.3334z"/>
  <path id="svg_138" fill="#e0e149" d="m70,39l1,1l-1,-1z"/>
  <path stroke="null" id="svg_139" fill="#e66e41" d="m100.129173,36.24238l0.839548,6.483266c1.010816,-3.114431 0.678355,-3.937158 -0.839548,-6.483266z"/>
  <path id="svg_140" fill="#f6e7cf" d="m102,39l1,1l-1,-1z"/>
  <path id="svg_141" fill="#fd8b8a" d="m106.667,39.3333c-0.445,0.4445 0.611,0.3889 0.666,0.3334c0.445,-0.4445 -0.611,-0.3889 -0.666,-0.3334z"/>
  <path stroke="null" id="svg_142" fill="#95d80b" d="m68,39.564586c-0.5451,1.684745 -0.3648,1.498982 -2,2.060598l1,5.151494l2,-1.030299l0,2.060598c1.8694,0.641979 2.5219,0.030085 4,2.060598c0.9482,1.302607 -0.1937,2.888443 2,4.121195c2.2733,1.277571 2.9413,-0.96982 4,-2.060598l1,1.030299c-1.6883,-5.82531 -7.3072,-10.025838 -12,-13.393885z"/>
  <path id="svg_143" fill="#fbe1d9" d="m104.042724,40.6667c-0.055,0.0555 -0.111,1.1111 0.334,0.6666c0.055,-0.0555 0.111,-1.1111 -0.334,-0.6666z"/>
  <path id="svg_144" fill="#fcadac" d="m107.667,40.3333c-0.445,0.4444 0.611,0.3889 0.666,0.3334c0.445,-0.4445 -0.611,-0.3889 -0.666,-0.3334z"/>
  <path id="svg_145" fill="#09b666" d="m55,41l2,3c1.1178,-2.1397 0.2508,-2.5268 -2,-3z"/>
  <path id="svg_146" fill="#c5ec8c" d="m65.3333,41.6667c-0.0555,0.0555 -0.1111,1.1111 0.3334,0.6666c0.0555,-0.0555 0.1111,-1.1111 -0.3334,-0.6666z"/>
  <path id="svg_147" fill="#ace350" d="m67,41l1,1l-1,-1z"/>
  <path id="svg_148" fill="#e1bf37" d="m90,41c0.7765,2.1317 1.1302,2.7708 3,4c-0.4784,-2.3922 -0.8264,-2.9132 -3,-4z"/>
  <path stroke="null" id="svg_149" fill="#d8740b" d="m89.671413,40.003165l1.72569,3.451379c2.821675,-0.940501 2.510878,-0.629704 3.451379,-3.451379l-5.177069,0z"/>
  <path id="svg_150" fill="#dd6724" d="m98,41c1.2484,0.6848 1.5484,0.7488 3,1c-1.2483,-0.6848 -1.5484,-0.7488 -3,-1z"/>
  <path id="svg_151" fill="#eebc8c" d="m101,41l1,1l-1,-1z"/>
  <path stroke="null" id="svg_152" fill="#06d978" d="m54,42c1.080977,2.230853 1.053451,2.206796 3.606061,3.151515c-0.579975,-2.483394 -0.764485,-2.644647 -3.606061,-3.151515z"/>
  <path id="svg_153" fill="#64d09f" d="m58,42l1,1l-1,-1z"/>
  <path id="svg_154" fill="#e2f5c3" d="m61,43c1.6593,0.4065 2.2418,0.3086 4,0c-1.8092,-0.5743 -2.0688,-0.4653 -4,0z"/>
  <path id="svg_155" fill="#f9f2db" d="m89,42l1,1l-1,-1z"/>
  <path id="svg_156" fill="#f2cbaf" d="m98,42l1,1l-1,-1z"/>
  <path id="svg_157" fill="#e8a964" d="m99.6667,42.3333c-0.4445,0.4445 0.6113,0.3889 0.6663,0.3334c0.445,-0.4445 -0.6108,-0.3889 -0.6663,-0.3334z"/>
  <path id="svg_158" fill="#f5cdbb" d="m101.333,42.6667c-0.055,0.0555 -0.111,1.1111 0.334,0.6666c0.055,-0.0555 0.111,-1.1111 -0.334,-0.6666z"/>
  <path stroke="null" id="svg_159" fill="#7ad80a" d="m60,48.037879c2.823686,2.255622 4.779882,5.377562 7.700027,7.505421c3.642948,2.654479 8.319726,3.11592 12.663611,3.911247c-0.687541,-1.879599 -1.017432,-3.209433 -1.07177,-5.189395c-4.399618,-2.106167 -4.7853,-6.237855 -9.902682,-6.539462l-1.886793,-4.877205c-3.963836,0.59595 -5.697532,1.717482 -7.502393,5.189394z"/>
  <path stroke="null" id="svg_160" fill="#efdd9d" d="m87.050278,36.98557l-0.552676,10.279152c4.33357,-1.024874 3.261129,-4.193503 3.934602,-8.507531l-2.749545,-0.322113z"/>
  <path stroke="null" id="svg_161" fill="#f0c99d" d="m92,43c0.5451,1.6352 1.122377,1.4549 2.757577,2l-0.757577,-2l-2,0z"/>
  <path id="svg_162" fill="#e49a53" d="m94.6667,43.3333c-0.4445,0.4445 0.6111,0.3889 0.6666,0.3334c0.4445,-0.4445 -0.6111,-0.3889 -0.6666,-0.3334z"/>
  <path id="svg_163" fill="#62e5a8" d="m54,44l1,1l-1,-1z"/>
  <path id="svg_164" fill="#77dc7c" d="m57,44l1,1l-1,-1z"/>
  <path id="svg_165" fill="#aeeb94" d="m58.3333,44.6667c-0.0555,0.0555 -0.1111,1.1111 0.3334,0.6666c0.0555,-0.0555 0.1111,-1.1111 -0.3334,-0.6666z"/>
  <path transform="rotate(-5.721474647521973 61.37878799438487,45.075759887695284) " stroke="null" id="svg_166" fill="#b9eb7e" d="m60,44l0,2.151515c2.254457,-0.586395 2.006137,-0.392544 2.757577,-2.151515l-2.757577,0z"/>
  <path stroke="null" id="svg_167" fill="#dfba33" d="m88.699819,40.806966l-1.55468,7.240888c2.746032,-2.361978 3.040177,-2.948972 1.55468,-7.240888z"/>
  <path stroke="null" id="svg_168" fill="#ffffff" d="m90.3333,44.268145c-0.0555,0.084021 -0.1111,1.682092 0.3334,1.009164c0.0555,-0.084021 0.1111,-1.682092 -0.3334,-1.009164z"/>
  <path id="svg_169" fill="#ee9375" d="m100.333,44.6667c-0.055,0.0555 -0.111,1.1111 0.334,0.6666c0.055,-0.0555 0.111,-1.1111 -0.334,-0.6666z"/>
  <path id="svg_170" fill="#e2622e" d="m101,44l1,1l-1,-1z"/>
  <path id="svg_171" fill="#f19f88" d="m102,44l1,1l-1,-1z"/>
  <path id="svg_173" fill="#e8cc6a" d="m92.6667,45.3333c-0.4445,0.4445 0.6111,0.3889 0.6666,0.3334c0.4445,-0.4445 -0.6111,-0.3889 -0.6666,-0.3334z"/>
  <path stroke="null" id="svg_174" fill="#f7e1d3" d="m98.454546,45l0,6.484853c0.090035,-3.358505 0.090035,-3.126347 0,-6.484853z"/>
  <path stroke="null" id="svg_175" fill="#e45f2c" d="m99.057793,45.6667c-0.096781,0.0555 -0.193736,1.1111 0.581382,0.6666c0.096781,-0.0555 0.193736,-1.1111 -0.581382,-0.6666z"/>
  <path id="svg_176" fill="#3dd119" d="m59,46l1,1l-1,-1z"/>
  <path stroke="null" id="svg_177" fill="#0bd77a" d="m56.408683,49.016899c-10.985419,-1.716255 -5.59218,8.245865 -1.181731,12.130183c4.287773,3.776357 10.578505,2.764986 16.23403,3.307464c0,-1.849224 -0.017937,-1.565892 -1.254358,-3.087529c2.253831,0 1.908506,-0.014717 3.763075,-1.029176c-2.359699,-3.281529 -13.314887,-14.622642 -17.561015,-11.320941z"/>
  <path stroke="null" id="svg_178" fill="#e9d27d" d="m87.6667,47.360824c-0.4445,0.775118 0.6111,0.678163 0.6666,0.581382c0.4445,-0.775118 -0.6111,-0.678163 -0.6666,-0.581382z"/>
  <path id="svg_179" fill="#efa687" d="m99,47l1,1l-1,-1z"/>
  <path id="svg_180" fill="#bef4db" d="m53,48l1,1l-1,-1z"/>
  <path stroke="null" id="svg_181" fill="#eca580" d="m93.606061,44.212117l0,2.393937c-3.34428,-1.23982 -3.34428,-1.154117 0,-2.393937z"/>
  <path id="svg_182" fill="#40d745" d="m62,49l1,1l-1,-1z"/>
  <path id="svg_183" fill="#b3f3d5" d="m51.3333,50.6667c-0.0555,0.0555 -0.1111,1.1111 0.3334,0.6666c0.0555,-0.0555 0.1111,-1.1111 -0.3334,-0.6666z"/>
  <path transform="rotate(-46.10350799560547 84.50000000000003,50.5) " id="svg_184" fill="#ebe383" d="m84,50l1,1l-1,-1z"/>
  <path id="svg_185" fill="#dee143" d="m80.3333,51.6667c-0.0555,0.0555 -0.1111,1.1111 0.3334,0.6666c0.0555,-0.0555 0.1111,-1.1111 -0.3334,-0.6666z"/>
  <path id="svg_186" fill="#ece48a" d="m81.6667,51.3333c-0.4445,0.4445 0.6111,0.3889 0.6666,0.3334c0.4445,-0.4445 -0.6111,-0.3889 -0.6666,-0.3334z"/>
  <path id="svg_187" fill="#8ddc43" d="m78,52c-0.1841,2.1107 -0.2382,3.9053 0,6c1.2022,-2.4043 1.3363,-3.6859 0,-6z"/>
  <path id="svg_188" fill="#b3f1f1" d="m28,53c2.0521,0.8742 3.7472,0.9528 6,1c-2.0521,-0.8742 -3.7472,-0.9528 -6,-1z"/>
  <path id="svg_189" fill="#0bd8a6" d="m51,54c1.1394,1.0154 1.6116,1.3087 3,2c0,-1.7968 -0.0143,-1.5215 -1,-3l-2,1z"/>
  <path id="svg_190" fill="#a0d400" d="m80,53l1,1l-1,-1z"/>
  <path id="svg_191" fill="#f7f8d8" d="m81.6667,53.3333c-0.4445,0.4445 0.6111,0.3889 0.6666,0.3334c0.4445,-0.4445 -0.6111,-0.3889 -0.6666,-0.3334z"/>
  <path id="svg_192" fill="#9ee1f1" d="m25,54l1,1l-1,-1z"/>
  <path stroke="null" id="svg_193" fill="#0b8ad7" d="m20.464318,63.202998c0.761,-0.856418 1.660075,-2.202856 2.665148,-2.820757c7.28617,-4.479469 6.751505,5.040234 9.208162,8.487825c3.692207,5.181724 7.9006,5.776666 8.30675,13.032014c6.608226,0.649585 13.893547,0.053396 20.18006,-2.077676c-2.29203,-0.842082 -13.334181,-8.399563 -15.550376,-9.50229c-3.633155,-1.807681 1.460021,2.133709 -1.094244,-0.88692c-3.786841,-4.478223 -5.835861,-10.640297 -10.986556,-13.916065c-6.873965,-4.371741 -14.350465,-0.006648 -12.728944,7.683869z"/>
  <path stroke="null" id="svg_194" fill="#0bc4d8" d="m32.99679,54.201913c6.120227,9.363666 15.922968,26.881288 28.454589,19.835955c-3.211429,-5.818495 -14.073631,-19.066028 -21.218278,-14.287497c-1.386154,-3.347779 -3.866944,-4.776557 -7.236311,-5.548458z"/>
  <path id="svg_195" fill="#93eee7" d="m37.6667,54.3333c-0.4445,0.4445 0.6111,0.3889 0.6666,0.3334c0.4445,-0.4445 -0.6111,-0.3889 -0.6666,-0.3334z"/>
  <path id="svg_196" fill="#d6f7f5" d="m39,54c2.0521,0.8742 3.7472,0.9528 6,1c-2.0521,-0.8742 -3.7472,-0.9528 -6,-1z"/>
  <path id="svg_197" fill="#c1e970" d="m80,54l1,1l-1,-1z"/>
  <path id="svg_198" fill="#b6db19" d="m81,54l1,1l-1,-1z"/>
  <path id="svg_199" fill="#d9e765" d="m82,54l1,1l-1,-1z"/>
  <path id="svg_200" fill="#b1ebf3" d="m23,55l1,1l-1,-1z"/>
  <path stroke="null" id="svg_201" fill="#0bd7c7" d="m37.393342,55l2.602728,4.373971c7.279463,-3.70197 16.153756,13.262693 24.294206,15.712984c-2.52398,-3.557294 -3.421118,-6.125041 -3.018633,-10.572081c-3.115532,-2.811434 -5.488782,-6.151472 -8.04969,-9.514874c-4.702427,0.705158 -11.092979,0.013744 -15.828611,0z"/>
  <path id="svg_202" fill="#60e5db" d="m47,55c1.506,0.683 2.3148,0.8259 4,1c-1.506,-0.683 -2.3148,-0.8259 -4,-1z"/>
  <path id="svg_203" fill="#bfe768" d="m81,55l1,1l-1,-1z"/>
  <path id="svg_204" fill="#aed500" d="m82,55l1,1l-1,-1z"/>
  <path id="svg_205" fill="#97e1ef" d="m22,56l1,1l-1,-1z"/>
  <path id="svg_206" fill="#dce350" d="m82.6667,56.3333c-0.4445,0.4444 0.6111,0.3889 0.6666,0.3334c0.4445,-0.4445 -0.6111,-0.3889 -0.6666,-0.3334z"/>
  <path id="svg_207" fill="#b4d500" d="m83,57l1,1l-1,-1z"/>
  <path stroke="null" id="svg_208" fill="#56c8e5" d="m21.454546,58l0,3c0.090039,-1.5537 0.090039,-1.4463 0,-3z"/>
  <path stroke="null" id="svg_209" fill="#49aae3" d="m22.819886,63.089358l-1.131124,-2.041438c-0.703333,1.983564 -0.492944,3.010101 0,5.103596c2.325364,-0.497601 3.556366,-0.971623 5.655619,-2.041438l-2.262248,-3.062158c2.598644,0.687454 3.13785,0.9853 4.524495,3.062158c1.818395,-1.479839 2.334979,-2.094005 3.393371,-4.082877c-4.677197,0.15076 -9.280305,-4.652132 -10.180114,3.062158z"/>
  <path id="svg_210" fill="#58e082" d="m71,58l1,1l-1,-1z"/>
  <path id="svg_211" fill="#96de57" d="m72,58c1.769,0.7789 3.0359,0.9124 5,1c-1.769,-0.7789 -3.0359,-0.9124 -5,-1z"/>
  <path id="svg_212" fill="#d2f2ae" d="m79,58l1,1l-1,-1z"/>
  <path id="svg_213" fill="#e1e86f" d="m83.6667,58.3333c-0.4445,0.4445 0.6111,0.3889 0.6666,0.3334c0.4445,-0.4445 -0.6111,-0.3889 -0.6666,-0.3334z"/>
  <path id="svg_214" fill="#c7db1d" d="m84,59l1,1l-1,-1z"/>
  <path id="svg_215" fill="#d1ecf8" d="m31,60l1,1l-1,-1z"/>
  <path id="svg_216" fill="#aff2d2" d="m71.3333,60.6667c-0.0555,0.0555 -0.1111,1.1111 0.3334,0.6666c0.0555,-0.0555 0.1111,-1.1111 -0.3334,-0.6666z"/>
  <path id="svg_217" fill="#e8f1a1" d="m84,60c1.4498,1.6076 2.0515,2.0643 4,3c-1.4498,-1.6076 -2.0514,-2.0643 -4,-3z"/>
  <path id="svg_218" fill="#c4eef6" d="m21,61c-0.48,2.3596 -0.5192,3.6626 0,6c1.5162,-2.3472 1.3872,-3.56 0,-6z"/>
  <path id="svg_221" fill="#64b8e9" d="m29,61l0,4c0.7102,-1.7595 0.7102,-2.2405 0,-4z"/>
  <path id="svg_222" fill="#60e5a9" d="m69.6667,61.3333c-0.4445,0.4445 0.6111,0.3889 0.6666,0.3334c0.4445,-0.4445 -0.6111,-0.3889 -0.6666,-0.3334z"/>
  <path id="svg_223" fill="#0b7ad9" d="m32.621118,63.242236c-2.3595,4.7202 -5.932,5.7645 -11,6c2.1991,0.9984 4.7981,1.2862 6.7917,2.7415c4.1577,3.0353 7.3866,8.6092 11.2083,12.2585c2.3772,-0.572 4.558,-0.8905 7,-1c-1.506,-0.683 -2.3148,-0.8259 -4,-1c-0.1847,-7.6398 -4.2107,-7.8056 -7.8241,-13.294c-1.0994,-1.6699 -1.3547,-3.8988 -2.1759,-5.706z"/>
  <path id="svg_224" fill="#a2f0cc" d="m70,62l1,1l-1,-1z"/>
  <path stroke="null" id="svg_225" fill="#9bddf2" d="m28.166147,64.212122c-2.013244,0.905724 -3.302923,1.354066 -5.7116,1.727271l0,1.151514c3.299496,-0.110545 7.086668,-0.425081 5.7116,-2.878786z"/>
  <path id="svg_226" fill="#91c9ef" d="m31,63c-0.9857,1.4785 -1,1.2032 -1,3c1.2892,-1.4426 1.4009,-1.2337 1,-3z"/>
  <path id="svg_227" fill="#0edbab" d="m60,63l5,5c0.7621,-3.4324 -2.0562,-4.2077 -5,-5z"/>
  <path id="svg_228" fill="#91edc3" d="m65.6667,63.3333c-0.4445,0.4445 0.6111,0.3889 0.6666,0.3334c0.4445,-0.4445 -0.6111,-0.3889 -0.6666,-0.3334z"/>
  <path id="svg_229" fill="#5ae4a5" d="m68,63c1.1266,2.0059 1.8734,2.0059 3,0l-3,0z"/>
  <path stroke="null" id="svg_230" fill="#82cdf0" d="m8.886749,67.631614c2.057547,1.101 4.286903,1.949177 6.746424,2.822931c1.108325,-0.834741 1.124404,-0.67931 1.124404,-1.693759c-2.620986,-0.477301 -5.13133,-0.874431 -7.870828,-1.129172z"/>
  <path id="svg_231" fill="#98dbf3" d="m16.6667,65.3333c-0.4445,0.4445 0.6111,0.3889 0.6666,0.3334c0.4445,-0.4445 -0.6111,-0.3889 -0.6666,-0.3334z"/>
  <path id="svg_232" fill="#3d98e3" d="m29.3333,65.6667c-0.0555,0.0555 -0.1111,1.1111 0.3334,0.6666c0.0555,-0.0555 0.1111,-1.1111 -0.3334,-0.6666z"/>
  <path id="svg_233" fill="#93efe3" d="m61,65c1.2483,0.6848 1.5484,0.7488 3,1c-1.2484,-0.6848 -1.5484,-0.7488 -3,-1z"/>
  <path id="svg_234" fill="#bcf4da" d="m68.6667,65.3333c-0.4445,0.4445 0.6111,0.3889 0.6666,0.3334c0.4445,-0.4445 -0.6111,-0.3889 -0.6666,-0.3334z"/>
  <path id="svg_235" fill="#56bceb" d="m15,66c1.2228,1.1952 1.42,1.3164 3,2c-0.9802,-1.7833 -0.9076,-1.5943 -3,-2z"/>
  <path id="svg_236" fill="#ace0f5" d="m18.460923,66.435414l-2,3l3,1c-0.1741,-1.6852 -0.317,-2.494 -1,-4z"/>
  <path id="svg_237" fill="#5be5db" d="m60,66l0,3c0.6961,-1.5537 0.6961,-1.4463 0,-3z"/>
  <path id="svg_238" fill="#dafbf3" d="m61,69l3,-2c-2.1397,-1.1178 -2.5268,-0.2508 -3,2z"/>
  <path id="svg_239" fill="#74edcf" d="m64,66c-1.0356,1.1863 -1.3386,1.6036 -2,3c2.2508,-0.4732 3.1178,-0.8603 2,-3z"/>
  <path id="svg_240" fill="#96efd8" d="m66,66l1,1l-1,-1z"/>
  <path id="svg_243" fill="#65b7ea" d="m13.696969,72.151515l4,-2c-2.3082,-0.5576 -2.7564,0.0036 -4,2z"/>
  <path stroke="null" id="svg_244" fill="#0a5fd8" d="m17.586929,72.338656l0,2.958415c5.714568,0.16005 8.678906,5.168351 10.928986,9.861383c0.983808,-2.488224 0.612918,-4.297788 0,-6.902968c3.209049,3.191637 3.869358,6.423606 3.974177,10.847522c1.771788,-0.966613 1.584008,-0.89502 1.987089,-2.958415c3.044219,2.521259 4.584114,5.198921 5.961265,8.875245l3.974177,-1.972277l-0.993544,3.944553l4.967721,0l-0.993544,2.958416c2.033089,1.189282 3.388382,2.216839 4.967721,3.944553c-2.217293,-0.357968 -3.743973,-0.357968 -5.961266,0l0,-3.944553l-4.967721,1.972276c4.440547,4.295619 10.114976,5.527306 13.909619,0c0.979337,1.458499 0.993545,1.186325 0.993545,2.958415l2.980632,-0.986138c-1.068954,-6.606042 -4.970602,-6.952177 -9.935442,-10.403168c-3.856144,-2.680225 -6.699468,-6.155673 -10.928987,-8.333461c0.979337,-1.458005 0.993545,-1.186521 0.993545,-2.958415c-5.783123,-2.084105 -6.614918,-8.866074 -12.025263,-11.100861c-3.589477,-1.482757 -6.463502,0.490999 -9.83271,1.239478z"/>
  <path id="svg_245" fill="#94ede5" d="m61,69l1,1l-1,-1z"/>
  <path id="svg_246" fill="#aae8ec" d="m65,69l0,5c1.5743,-2.0923 2.0182,-3.1849 0,-5z"/>
  <path id="svg_247" fill="#41d9dd" d="m67,69l-1,6c2.1099,-2.0629 3.4167,-3.7719 1,-6z"/>
  <path id="svg_248" fill="#88aeec" d="m16,70l0,3c1.0154,-1.1393 1.3087,-1.6116 2,-3l-2,0z"/>
  <path id="svg_249" fill="#5fb8e9" d="m18,70l0,2c1.6352,-0.5451 1.4549,-0.3648 2,-2l-2,0z"/>
  <path id="svg_250" fill="#31e1d4" d="m61.3333,70.6667c-0.0555,0.0555 -0.1111,1.1111 0.3334,0.6666c0.0555,-0.0555 0.1111,-1.1111 -0.3334,-0.6666z"/>
  <path id="svg_251" fill="#7bede5" d="m62,70l0,3c1.0154,-1.1393 1.3087,-1.6116 2,-3l-2,0z"/>
  <path id="svg_252" fill="#50c9b1" d="m64.6667,70.3333c-0.4445,0.4445 0.6111,0.3889 0.6666,0.3334c0.4445,-0.4445 -0.6111,-0.3889 -0.6666,-0.3334z"/>
  <path id="svg_253" fill="#70deee" d="m67.3333,70.6667c-0.0556,0.0556 -0.1111,1.1111 0.3334,0.6666c0.0555,-0.0555 0.1111,-1.1111 -0.3334,-0.6666z"/>
  <path id="svg_254" fill="#74d3bd" d="m63,71c0,1.7968 0.0143,1.5215 1,3c1.0154,-1.1393 1.3087,-1.6116 2,-3l-3,0z"/>
  <path id="svg_256" fill="#dce5f9" d="m9,72l0,2c1.6352,-0.5451 1.4549,-0.3648 2,-2l-2,0z"/>
  <path id="svg_257" fill="#90e9e4" d="m81,72c1.5061,0.683 2.3148,0.8259 4,1c-1.506,-0.683 -2.3148,-0.8259 -4,-1z"/>
  <path id="svg_258" fill="#2e67df" d="m10,73l0,3c1.0154,-1.1394 1.3087,-1.6116 2,-3l-2,0z"/>
  <path id="svg_259" fill="#628de8" d="m15.6667,73.3333c-0.4445,0.4445 0.6111,0.3889 0.6666,0.3334c0.4445,-0.4445 -0.6111,-0.3889 -0.6666,-0.3334z"/>
  <path stroke="null" id="svg_260" fill="#0b4ed7" d="m11.484847,75.852222c3.554234,7.381241 10.844539,13.126236 16.151139,19.414416c2.605696,3.087688 5.077494,6.620006 9.495424,7.21263c4.539007,0.609895 15.532221,-1.967897 19.615131,-3.522967c-1.972221,-0.840792 -9.625592,-1.420314 -11.815326,-1.514874l1.260017,-4.462979c-0.110716,-6.740541 -2.913717,1.270691 -4.604654,2.304058c1.037755,-7.086063 -3.289227,-10.774201 -8.919031,-6.476761c-0.044038,-4.763658 -3.276651,-14.578714 -7.652551,-17.389304l4.453052,12.926325c-7.210467,-9.851776 -8.875309,-13.453255 -17.983201,-8.490544z"/>
  <path id="svg_261" fill="#b7ecf6" d="m59.6667,73.3333c-0.4445,0.4445 0.6111,0.3889 0.6666,0.3334c0.4445,-0.4445 -0.6111,-0.3889 -0.6666,-0.3334z"/>
  <path id="svg_262" fill="#abebe8" d="m77,73l1,1l-1,-1z"/>
  <path stroke="null" id="svg_263" fill="#0bd8c8" d="m84.637904,97.204311l0,3.628865c2.385876,0.134268 3.652305,0.396454 5.384022,-0.907216c1.855011,0.84734 3.34477,1.392577 5.384022,1.814433c-0.499314,1.970474 -1.190407,3.590762 -2.153609,5.443298l5.384022,0.907216c-0.90107,-2.992907 -0.802219,-5.160246 0,-8.164947c-5.91381,-2.197278 -8.504602,-5.762456 -12.733859,-9.644072c-4.310771,-3.95637 -8.946415,-6.842679 -10.955839,-12.129119l8.614436,-1.814433c-1.536277,-0.54188 -2.645816,-0.841806 -4.370319,-0.839992c-16.383365,0.017328 -4.727602,21.84477 5.447123,21.705966z"/>
  <path id="svg_264" fill="#59d6d0" d="m83.67938,74.928224c1.0777,1.8476 0.9491,1.9662 0,4c2.4758,-1.3391 3.52,-2.5877 5,-5l-5,1z"/>
  <path id="svg_266" fill="#8aacec" d="m9,74l1,1l-1,-1z"/>
  <path id="svg_267" fill="#40d3e1" d="m55.6667,74.3333c-0.4445,0.4445 0.6111,0.3889 0.6666,0.3334c0.4445,-0.4445 -0.6111,-0.3889 -0.6666,-0.3334z"/>
  <path id="svg_268" fill="#5ed9e6" d="m58,74l1,1l-1,-1z"/>
  <path id="svg_270" fill="#b1ecf7" d="m62,74c1.1393,1.0154 1.6116,1.3087 3,2c-0.9802,-1.7833 -0.9076,-1.5943 -3,-2z"/>
  <path id="svg_271" fill="#79e4e7" d="m65.3333,74.6667c-0.0555,0.0555 -0.1111,1.1111 0.3334,0.6666c0.0555,-0.0555 0.1111,-1.1111 -0.3334,-0.6666z"/>
  <path stroke="null" id="svg_272" fill="#9be8ea" d="m83.792675,76.625238c-1.29412,1.349202 -2.539458,2.328337 -3.435414,3.854862l8.015965,-1.927431c-1.669611,-1.041873 -2.57427,-1.383992 -4.580552,-1.927431z"/>
  <path id="svg_273" fill="#19d8d8" d="m88,74c0.0313,1.8318 -0.0795,1.5587 1,3c-0.2512,-1.4516 -0.3152,-1.7517 -1,-3z"/>
  <path stroke="null" id="svg_274" fill="#53dcdb" d="m91.757619,75.451379l0,3.145138c0.738622,-1.628867 0.738622,-1.516271 0,-3.145138z"/>
  <path stroke="null" id="svg_275" fill="#0b2cd7" d="m8.904307,75c-1.754271,1.478934 -2.653966,1.765982 -4.904307,2.080808c2.061339,6.497011 6.842686,14.290886 11.770337,18.727273c-0.601072,-1.728631 -1.022744,-2.583635 -1.961723,-4.161616c5.835635,2.919062 7.923202,8.76426 10.789476,14.565657c1.289048,-0.79903 1.208519,-0.713717 1.961723,-2.080808l1.961723,0c1.950737,2.181727 4.129427,1.379576 6.86603,1.040404c-1.134759,-3.666384 -3.837032,-5.49583 -6.135681,-8.420406c-5.790614,-7.367205 -11.801332,-17.889539 -20.347578,-21.751311z"/>
  <path id="svg_276" fill="#6f98e9" d="m11,75c1.506,0.683 2.3148,0.8259 4,1c-1.506,-0.683 -2.3148,-0.8259 -4,-1z"/>
  <path id="svg_278" fill="#d0eff7" d="m56.6667,75.3333c-0.4445,0.4445 0.6111,0.3889 0.6666,0.3334c0.4445,-0.4445 -0.6111,-0.3889 -0.6666,-0.3334z"/>
  <path id="svg_279" fill="#b3e3de" d="m73,75l1,1l-1,-1z"/>
  <path id="svg_280" fill="#d6f3f4" d="m80.6667,75.3333c-0.4445,0.4445 0.6111,0.3889 0.6666,0.3334c0.4445,-0.4445 -0.6111,-0.3889 -0.6666,-0.3334z"/>
  <path stroke="null" id="svg_281" fill="#abb6f2" d="m3,76c2.231199,0.891948 3.829061,1.044824 6.306241,1.145138c-2.231199,-0.891948 -3.829061,-1.044824 -6.306241,-1.145138z"/>
  <path id="svg_282" fill="#5970e5" d="m8,76l1,1l-1,-1z"/>
  <path id="svg_283" fill="#87baeb" d="m53.3333,76.6667c-0.0555,0.0555 -0.1111,1.1111 0.3334,0.6666c0.0555,-0.0555 0.1111,-1.1111 -0.3334,-0.6666z"/>
  <path id="svg_284" fill="#5cb3e0" d="m55.6667,76.3333c-0.4445,0.4445 0.6111,0.3889 0.6666,0.3334c0.4445,-0.4445 -0.6111,-0.3889 -0.6666,-0.3334z"/>
  <path id="svg_285" fill="#77bde9" d="m57,76c2.3079,1.7595 4.0923,1.9172 7,2c-2.2515,-1.0885 -4.5348,-1.5187 -7,-2z"/>
  <path id="svg_286" fill="#bef2f3" d="m64,77c1.7885,1.4215 2.7058,1.6974 5,2c-1.8716,-1.7226 -2.4639,-1.9667 -5,-2z"/>
  <path id="svg_287" fill="#0bbcc1" d="m73,76l-1,7c2.2932,-2.0026 2.1401,-4.266 1,-7z"/>
  <path stroke="null" style="vector-effect: non-scaling-stroke;" id="svg_288" fill="#38d4dc" d="m76.984035,76.870828c0.676415,3.009382 1.809169,5.022366 4.232221,7.274311c1.042925,-1.344384 1.058055,-1.094056 1.058055,-2.727866l-5.290276,-4.546444z"/>
  <path id="svg_289" fill="#a5e8eb" d="m86,79l4,-1c-2.1418,-1.1494 -2.6116,-0.9772 -4,1z"/>
  <path stroke="null" transform="rotate(0.550926685333252 13.693780899048486,90.48564147949232) " id="svg_290" fill="#0e09d6" d="m2.38263,75.97425c0.021543,7.566343 2.655838,10.316044 6.320466,16.584447c3.320028,5.678929 2.757042,8.204119 10.132118,8.292223c1.129984,3.442309 2.663468,3.873505 6.169719,4.146112c-0.833118,-2.303165 -1.787779,-4.135746 -3.084859,-6.219168c-3.329797,2.097933 -13.417647,0.281832 -8.226292,-4.146112c-2.009683,-6.838286 -6.612663,-13.37971 -11.311151,-18.657503z"/>
  <path id="svg_291" fill="#abd4f1" d="m55,79c1.58,-0.6836 1.7772,-0.8048 3,-2c-2.0924,0.4057 -2.0198,0.2167 -3,2z"/>
  <path id="svg_292" fill="#ceece7" d="m71,77c0.5451,1.6352 0.3648,1.4549 2,2l0,-2l-2,0z"/>
  <path id="svg_293" fill="#36d2de" d="m80,77l1,2c1.6352,-0.5451 1.4549,-0.3648 2,-2l-3,0z"/>
  <path id="svg_294" fill="#f4f7f3" d="m82,78c1.5061,0.683 2.3148,0.8259 4,1c-1.7346,-1.0501 -1.9315,-1.0462 -4,-1z"/>
  <path id="svg_295" fill="#4fd5df" d="m90.3333,77.6667c-0.0555,0.0555 -0.1111,1.1111 0.3334,0.6666c0.0555,-0.0555 0.1111,-1.1111 -0.3334,-0.6666z"/>
  <path id="svg_296" fill="#47a0e2" d="m54,78l1,1l-1,-1z"/>
  <path id="svg_297" fill="#9ccfee" d="m61,78l1,1l-1,-1z"/>
  <path id="svg_299" fill="#8ad0d9" d="m69,78l1,1l-1,-1z"/>
  <path stroke="null" id="svg_300" fill="#0bc4d8" d="m65.346306,77.242423l-1.149454,2.900568l-2.298908,-0.966856c-1.675559,1.27741 -4.939205,2.665719 -5.038633,4.808175c-0.122762,2.645125 3.508019,5.374559 5.520254,7.096239c2.04235,1.747495 4.636554,2.931797 6.558786,4.76863c4.74943,4.538809 8.659299,10.839809 15.948678,12.332635c-2.226493,-2.591174 -3.172494,-4.540356 -3.448363,-7.734848c2.846968,1.252078 4.974838,3.030127 8.04618,3.867424l0,-4.83428l-4.597817,0l0,-3.867424l-3.448363,0.966856c-3.290658,-5.422032 -8.152849,-9.534844 -10.345088,-15.469696l-3.448363,0.966856c0.371619,-1.965038 0.390929,-2.882971 0,-4.83428l-2.298908,0z"/>
  <path stroke="null" id="svg_301" fill="#18cada" d="m79.261555,79.42587c1.228348,2.7213 2.520171,3.7166 4.802612,5l1.600871,-5c-2.454295,0.8519 -3.97176,0.9648 -6.403483,0z"/>
  <path id="svg_302" fill="#79dfe7" d="m89,78l-1,2l2,0c0,-1.8532 0.2997,-1.3502 -1,-2z"/>
  <path id="svg_303" fill="#b9def4" d="m59,79l1,1l-1,-1z"/>
  <path id="svg_304" fill="#90f1ea" d="m64,79c1.5061,0.683 2.3148,0.8259 4,1c-1.506,-0.683 -2.3148,-0.8259 -4,-1z"/>
  <path id="svg_305" fill="#43b8a1" d="m68,79l0,2c1.6352,-0.5451 1.4549,-0.3648 2,-2l-2,0z"/>
  <path transform="rotate(-28.240201950073242 86.07575988769527,79.49999999999999) " id="svg_306" fill="#a5eaee" d="m85.575761,79l1,1l-1,-1z"/>
  <path id="svg_307" fill="#63b4e1" d="m49,80l1,1l-1,-1z"/>
  <path id="svg_308" fill="#9fd1ee" d="m52,83c1.0154,-1.1393 1.3087,-1.6116 2,-3c-2.2034,0.9939 -2.0476,0.6699 -2,3z"/>
  <path id="svg_309" fill="#6bb9e8" d="m54,80l0,2l2,0c-0.5451,-1.6352 -0.3648,-1.4549 -2,-2z"/>
  <path id="svg_310" fill="#74bde9" d="m57,80l1,1l-1,-1z"/>
  <path id="svg_311" fill="#87b2ed" d="m65.6667,80.3333c-0.4445,0.4445 0.6111,0.3889 0.6666,0.3334c0.4445,-0.4445 -0.6111,-0.3889 -0.6666,-0.3334z"/>
  <path stroke="null" id="svg_312" fill="#92e2ee" d="m86.770331,79.709724c0.192383,2.541978 0.225478,3.661082 2.290276,5.290276c-0.550124,-2.073365 -1.073681,-3.498777 -2.290276,-5.290276z"/>
  <path id="svg_313" fill="#edeb7b" d="m103,81c2.052,0.8742 3.747,0.9528 6,1c-2.224,-1.5686 -3.294,-1.4843 -6,-1z"/>
  <path id="svg_314" fill="#abd4e7" d="m48,81l1,1l-1,-1z"/>
  <path id="svg_316" fill="#8ddedd" d="m64,81c1.2484,0.6848 1.5484,0.7488 3,1c-1.2483,-0.6848 -1.5484,-0.7488 -3,-1z"/>
  <path id="svg_317" fill="#a98dec" d="m2.33333,82.6667c-0.05556,0.0555 -0.1111,1.1111 0.33334,0.6666c0.05555,-0.0555 0.11111,-1.1111 -0.33334,-0.6666z"/>
  <path id="svg_318" fill="#5eb3e5" d="m40,84c1.58,-0.6836 1.7772,-0.8048 3,-2c-2.0924,0.4057 -2.0198,0.2167 -3,2z"/>
  <path id="svg_319" fill="#e7f0e9" d="m42,84c1.58,-0.6836 1.7772,-0.8048 3,-2c-1.58,0.6836 -1.7772,0.8048 -3,2z"/>
  <path id="svg_320" fill="#b4dcf2" d="m54,82l1,1l-1,-1z"/>
  <path stroke="null" id="svg_321" fill="#0b8cd8" d="m48.489638,84.192873c3.875455,8.070913 10.035532,15.521389 20.61932,13.318181c-0.104833,6.071188 7.807885,10.407207 14.107956,11.415584c-8.660983,-10.267176 -19.722488,-17.437304 -29.301139,-26.636362l-5.426137,1.902597z"/>
  <path id="svg_322" fill="#d3ccee" d="m60.3333,82.6667c-0.0555,0.0555 -0.1111,1.1111 0.3334,0.6666c0.0555,-0.0555 0.1111,-1.1111 -0.3334,-0.6666z"/>
  <path id="svg_323" fill="#b8dec2" d="m62,82l1,1l-1,-1z"/>
  <path id="svg_324" fill="#60e3db" d="m82,84c1.58,-0.6836 1.7772,-0.8048 3,-2c-1.58,0.6836 -1.7772,0.8048 -3,2z"/>
  <path id="svg_325" fill="#d5db1b" d="m101,87l4,-4c-3.046,-0.6883 -3.549,1.2417 -4,4z"/>
  <path id="svg_326" fill="#add809" d="m105,82c2.013,1.2247 3.659,1.6453 6,2c-2.057,-1.5819 -3.388,-1.8256 -6,-2z"/>
  <path id="svg_327" fill="#f5f6cc" d="m110,82c0.545,1.6352 0.365,1.4549 2,2l0,-2l-2,0z"/>
  <path id="svg_328" fill="#9ed2ef" d="m38.6667,83.3333c-0.4445,0.4445 0.6111,0.3889 0.6666,0.3334c0.4445,-0.4445 -0.6111,-0.3889 -0.6666,-0.3334z"/>
  <path id="svg_329" fill="#90c8e2" d="m47.3333,83.6667c-0.0555,0.0555 -0.1111,1.1111 0.3334,0.6666c0.0555,-0.0555 0.1111,-1.1111 -0.3334,-0.6666z"/>
  <path stroke="null" id="svg_330" fill="#0b7ad8" d="m45.519821,82.090908l0,2c-3.311816,-0.8996 -6.350588,-0.992 -9.802139,-1c2.992266,2.9717 6.178071,6.1205 9.802139,8.4506c4.676383,3.0068 14.475146,5.1431 8.713013,11.5494l0,-3l-2.178253,0c2.242947,5.103 7.151423,3.29 11.980393,2c2.447703,4.083 5.06226,3.915 8.713013,1c-1.112325,-2.108 -1.779851,-3.704 -2.178253,-6c-2.700163,0.4521 -5.708875,1.2486 -8.343254,0.1281c-7.150007,-3.0411 -8.992809,-12.1018 -16.706658,-15.1281z"/>
  <path id="svg_331" fill="#6aace1" d="m49,83l1,1l-1,-1z"/>
  <path id="svg_332" fill="#a4d5f0" d="m57,83l1,1l-1,-1z"/>
  <path id="svg_333" fill="#8486ec" d="m59,83l1,1l-1,-1z"/>
  <path id="svg_334" fill="#fffcff" d="m84.6667,83.3333c-0.4445,0.4445 0.6111,0.3889 0.6666,0.3334c0.4445,-0.4445 -0.6111,-0.3889 -0.6666,-0.3334z"/>
  <path stroke="null" id="svg_335" fill="#b2d622" d="m103.835719,83.909093c-1.196447,5.443524 3.363321,5.142945 5.103673,0.748827l-5.103673,-0.748827z"/>
  <path id="svg_336" fill="#c5df55" d="m105,83c1.248,0.6848 1.548,0.7488 3,1c-1.248,-0.6848 -1.548,-0.7488 -3,-1z"/>
  <path id="svg_337" fill="#0065d5" d="m58.6667,84.3333c-0.4445,0.4445 0.6111,0.3889 0.6666,0.3334c0.4445,-0.4445 -0.6111,-0.3889 -0.6666,-0.3334z"/>
  <path id="svg_338" fill="#238bb8" d="m60.6667,84.3333c-0.4445,0.4445 0.6111,0.3889 0.6666,0.3334c0.4445,-0.4445 -0.6111,-0.3889 -0.6666,-0.3334z"/>
  <path id="svg_339" fill="#89ece3" d="m83.6667,84.3333c-0.4445,0.4445 0.6111,0.3889 0.6666,0.3334c0.4445,-0.4445 -0.6111,-0.3889 -0.6666,-0.3334z"/>
  <path stroke="null" id="svg_340" fill="#0bd7a4" d="m80.606056,83.709724l0,4c7.145387,3.2526 9.389189,9.8826 17.696529,12c-3.244128,7.288 1.369711,9.594 9.438149,10c3.397734,-9.3 -6.202044,-10.2081 -12.771703,-15.2747c-3.8149,-2.9423 -5.988977,-6.9747 -8.464132,-10.7253c-2.182454,0.2021 -3.716389,0.2021 -5.898843,0z"/>
  <path id="svg_341" fill="#49e1bb" d="m88,84l1,1l-1,-1z"/>
  <path id="svg_342" fill="#adf1e1" d="m90,84l1,1l-1,-1z"/>
  <path id="svg_343" fill="#4de29a" d="m91,84l1,1l-1,-1z"/>
  <path stroke="null" id="svg_344" fill="#0cd77a" d="m86.666662,84.722531c2.220721,3.578141 3.908896,7.590618 7.082044,10.523313c4.668569,4.314912 10.295069,5.822215 14.260242,11.117794c1.633247,-4.029574 0.092109,-8.685334 0,-12.984664c-1.568096,0.715671 -2.037627,1.043534 -3.369835,2.164111c-4.636892,-6.347337 -9.343765,-12.706468 -17.972451,-10.820553z"/>
  <path id="svg_345" fill="#79df60" d="m97,84l1,1l-1,-1z"/>
  <path id="svg_346" fill="#c4eb93" d="m98,84l1,1l-1,-1z"/>
  <path id="svg_347" fill="#f6f3d5" d="m100,84l0,3c0.696,-1.5537 0.696,-1.4463 0,-3z"/>
  <path id="svg_348" fill="#7cd903" d="m110,84c-0.701,4.4353 -2.647,6.1113 -7,7c1.33,1.7525 2.247,2.6697 4,4c2.46,-3.6238 4.795,-6.5909 3,-11z"/>
  <path id="svg_349" fill="#bcdc21" d="m111.333,84.6667c-0.055,0.0555 -0.111,1.1111 0.334,0.6666c0.055,-0.0555 0.111,-1.1111 -0.334,-0.6666z"/>
  <path stroke="null" id="svg_350" fill="#4f0bd5" d="m2.564586,81.775079c0.265889,3.962178 0.339065,7.62317 0,11.578546c2.437144,0.931783 4.392088,1.311126 6.943793,1.447318l1.157299,8.68391c2.714791,-8.722987 -3.307213,-16.142085 -8.101091,-21.709774z"/>
  <path id="svg_351" fill="#7bd600" d="m98,85c0.6836,1.58 0.8048,1.7772 2,3c-0.6836,-1.58 -0.8048,-1.7772 -2,-3z"/>
  <path id="svg_352" fill="#c1ec8d" d="m99,85l1,1l-1,-1z"/>
  <path id="svg_353" fill="#afe562" d="m109,85l-1,5c1.475,-1.9352 1.791,-2.6927 1,-5z"/>
  <path id="svg_354" fill="#a7e24c" d="m111,86l0,3c0.696,-1.5537 0.696,-1.4463 0,-3z"/>
  <path id="svg_355" fill="#e8e889" d="m100,87c1.45,1.6076 2.051,2.0643 4,3c-1.45,-1.6076 -2.051,-2.0643 -4,-3z"/>
  <path id="svg_356" fill="#a886ec" d="m3,88l0,3c0.6961,-1.5537 0.6961,-1.4463 0,-3z"/>
  <path id="svg_357" fill="#77d600" d="m100,88l1,1l-1,-1z"/>
  <path id="svg_358" fill="#7ed800" d="m101,89l1,1l-1,-1z"/>
  <path id="svg_359" fill="#bae87c" d="m104,89c0.98,1.7833 0.908,1.5943 3,2c-1.139,-1.0154 -1.612,-1.3087 -3,-2z"/>
  <path id="svg_360" fill="#e4e9a1" d="m107,89l1,1l-1,-1z"/>
  <path id="svg_362" fill="#8ede28" d="m102.667,90.3333c-0.445,0.4445 0.611,0.3889 0.666,0.3334c0.445,-0.4445 -0.611,-0.3889 -0.666,-0.3334z"/>
  <path id="svg_363" fill="#98e040" d="m110,90l1,1l-1,-1z"/>
  <path stroke="null" id="svg_364" fill="#0c1ed2" d="m10.744204,91.151516l2.92379,3.939394c-2.934461,0.097402 -7.562674,1.530454 -3.475362,3.782113c2.652169,1.46122 7.547324,1.58728 10.784836,2.126977c0.615019,-5.227674 -2.743684,-8.416318 -10.233263,-9.848484z"/>
  <path id="svg_365" fill="#7744da" d="m1.66667,92.3333c-0.44445,0.4445 0.61111,0.3889 0.66666,0.3334c0.44445,-0.4445 -0.6111,-0.3889 -0.66666,-0.3334z"/>
  <path id="svg_366" fill="#3dd739" d="m108,92l1,1l-1,-1z"/>
  <path id="svg_367" fill="#aae760" d="m109,92l0,3c0.696,-1.5537 0.696,-1.4463 0,-3z"/>
  <path id="svg_368" fill="#997cd5" d="m3.33333,93.6667c-0.05555,0.0555 -0.11111,1.1111 0.33334,0.6666c0.05555,-0.0555 0.11111,-1.1111 -0.33334,-0.6666z"/>
  <path stroke="null" transform="rotate(-2.2955119609832764 11.788246154785682,100.64830017089842) " id="svg_369" fill="#330c8d" d="m3.095985,100.043099c1.934076,-0.659674 1.720923,-0.4418 2.365611,-2.420823c5.282362,5.111567 8.062712,9.774072 15.376472,12.104113c-2.964229,-6.630633 -8.835321,-11.226686 -10.64525,-18.15617c-6.106849,0.346178 -8.41287,2.081786 -7.096833,8.472879z"/>
  <path id="svg_370" fill="#bda7ec" d="m1,95l1,1l-1,-1z"/>
  <path id="svg_371" fill="#d0f7e5" d="m109,95l0,3c0.696,-1.5537 0.696,-1.4463 0,-3z"/>
  <path id="svg_372" fill="#3800ae" d="m1,96c0.2065,2.4344 1.35803,7.625 4,4c-2.76382,0 -2.40165,-2.1493 -4,-4z"/>
  <path id="svg_373" fill="#d6c7f4" d="m0.33333,97.6667c-0.05555,0.0555 -0.11111,1.1111 0.33334,0.6666c0.05555,-0.0555 0.11111,-1.1111 -0.33334,-0.6666z"/>
  <path id="svg_374" fill="#7ea1ec" d="m46.6667,97.3333c-0.4445,0.4445 0.6111,0.3889 0.6666,0.3334c0.4445,-0.4445 -0.6111,-0.3889 -0.6666,-0.3334z"/>
  <path id="svg_375" fill="#5c95e5" d="m40,102l6,-3c-2.9973,-0.5956 -4.4501,0.4564 -6,3z"/>
  <path id="svg_377" fill="#3cdf94" d="m109.333,98.6667c-0.055,0.0555 -0.111,1.1111 0.334,0.6666c0.055,-0.0555 0.111,-1.1111 -0.334,-0.6666z"/>
  <path stroke="null" id="svg_379" fill="#0f032c" d="m5.545455,99.757577c-0.97357,1.532121 -1.146259,1.723152 -2.848486,2.909091c2.411514,1.029818 4.330283,1.473939 7.121215,1.939394c-1.067143,-2.185697 -1.914268,-3.213576 -4.272729,-4.848485z"/>
  <path id="svg_380" fill="#6633cb" d="m1,100l1,1l-1,-1z"/>
  <path stroke="null" id="svg_382" fill="#87acec" d="m49.3333,100.667c-0.0555,0.055 -0.1111,1.111 0.3334,0.666c0.0555,-0.055 0.1111,-1.111 -0.3334,-0.666z"/>
  <path id="svg_383" fill="#6fdee9" d="m92.6667,100.333c-0.4445,0.445 0.6111,0.389 0.6666,0.334c0.4445,-0.445 -0.6111,-0.389 -0.6666,-0.334z"/>
  <path id="svg_384" fill="#1f0066" d="m7.66667,101.333c-0.44445,0.445 0.61111,0.389 0.66666,0.334c0.44445,-0.445 -0.61111,-0.389 -0.66666,-0.334z"/>
  <path id="svg_385" fill="#0f0abe" d="m14,101c3.2099,7.012 4.8482,6.74 12,7c-0.8632,-4.028 -5.3689,-2.857 -7,-7l-5,0z"/>
  <path stroke="null" id="svg_386" fill="#0a43c8" d="m36.991737,97.515147c-1.529843,2.921459 -2.124733,3.339221 -4.991737,4.30682c1.562913,4.711661 3.213306,6.132911 7.487605,7.178033c2.143077,-2.641516 3.2017,-3.37224 6.239671,-4.30682c-1.691325,-3.891929 -3.238888,-3.670846 -6.239671,-5.742426l1.247934,-1.435607l-3.743803,0z"/>
  <path id="svg_387" fill="#4353db" d="m38,103l3,0l-1,-2c-1.6352,0.545 -1.4549,0.365 -2,2z"/>
  <path id="svg_390" fill="#96edc4" d="m110,101l0,4c0.71,-1.759 0.71,-2.241 0,-4z"/>
  <path id="svg_391" fill="#b8aad5" d="m2.33333,102.667c-0.05555,0.055 -0.11111,1.111 0.33334,0.666c0.05555,-0.055 0.11111,-1.111 -0.33334,-0.666z"/>
  <path id="svg_392" fill="#8f7db0" d="m8,102l1,1l-1,-1z"/>
  <path id="svg_393" fill="#4e76e2" d="m46.079827,100.113207c0.8014,2.104 1.4966,3.337 3,5c-0.1042,-2.861 -0.5227,-3.549 -3,-5z"/>
  <path transform="rotate(-35.771053314208984 86.49999999999996,102.49999999999996) " id="svg_394" fill="#71dee9" d="m86,102l1,1l-1,-1z"/>
  <path id="svg_395" fill="#8ee3ec" d="m91.484815,102.667c-0.0555,0.055 -0.1111,1.111 0.3334,0.666c0.0555,-0.055 0.1111,-1.111 -0.3334,-0.666z"/>
  <path id="svg_396" fill="#a3e8ef" d="m94.3333,102.667c-0.0555,0.055 -0.1111,1.111 0.3334,0.666c0.0555,-0.055 0.1111,-1.111 -0.3334,-0.666z"/>
  <path id="svg_397" fill="#32cfde" d="m95.3333,102.667c-0.0555,0.055 -0.1111,1.111 0.3334,0.666c0.0555,-0.055 0.1111,-1.111 -0.3334,-0.666z"/>
  <path id="svg_398" fill="#ddfaf7" d="m96.3333,102.667c-0.0555,0.055 -0.1111,1.111 0.3334,0.666c0.0555,-0.055 0.1111,-1.111 -0.3334,-0.666z"/>
  <path id="svg_399" fill="#756d87" d="m5.303031,103l1,1l-1,-1z"/>
  <path id="svg_400" fill="#ffffff" d="m8,103l1,1l-1,-1z"/>
  <path stroke="null" id="svg_401" fill="#0c25a4" d="m27.479799,101.484847l-1.479799,4.865802c2.833814,1.553407 1.605581,1.553407 4.439396,0l0,3.649351l2.959597,0c-0.052977,-2.529 -0.082129,-2.768641 1.479799,-4.865802l-4.439396,-3.649351l-2.959597,0z"/>
  <path id="svg_402" fill="#6198e7" d="m54,103c0.0313,1.832 -0.0795,1.559 1,3c-0.2512,-1.452 -0.3152,-1.752 -1,-3z"/>
  <path id="svg_403" fill="#4699e1" d="m61,103l1,1l-1,-1z"/>
  <path id="svg_404" fill="#4e9fe2" d="m64,103l1,1l-1,-1z"/>
  <path id="svg_405" fill="#877f97" d="m7,104l1,1l-1,-1z"/>
  <path stroke="null" id="svg_406" fill="#cbc4d8" d="m7.924335,102.838897l-0.924335,4.161103c1.994623,-1.35652 2.311503,-1.647797 0.924335,-4.161103z"/>
  <path id="svg_407" fill="#85b3eb" d="m44,104l1,1l-1,-1z"/>
  <path id="svg_408" fill="#bad9f4" d="m59,104l1,1l-1,-1z"/>
  <path id="svg_409" fill="#004ad6" d="m72.6667,104.333c-0.4445,0.445 0.6111,0.389 0.6666,0.334c0.4445,-0.445 -0.6111,-0.389 -0.6666,-0.334z"/>
  <path id="svg_410" fill="#acebf2" d="m87,104l1,1l-1,-1z"/>
  <path id="svg_411" fill="#a9f1eb" d="m95.6667,104.333c-0.4445,0.445 0.6111,0.389 0.6666,0.334c0.4445,-0.445 -0.6111,-0.389 -0.6666,-0.334z"/>
  <path id="svg_412" fill="#e0e7f8" d="m45,105l1,1l-1,-1z"/>
  <path id="svg_413" fill="#a9baf0" d="m46.3333,105.667c-0.0555,0.055 -0.1111,1.111 0.3334,0.666c0.0555,-0.055 0.1111,-1.111 -0.3334,-0.666z"/>
  <path id="svg_414" fill="#3c81e2" d="m47,105c2.4826,1.423 4.177,1.434 7,1c-2.3316,-0.985 -4.4567,-0.981 -7,-1z"/>
  <path id="svg_415" fill="#b4d2f4" d="m55,105l1,1l-1,-1z"/>
  <path id="svg_416" fill="#5e80e5" d="m73,105l1,1l-1,-1z"/>
  <path id="svg_417" fill="#0050d5" d="m74,105c1.2228,1.195 1.42,1.316 3,2c-1.2228,-1.195 -1.42,-1.316 -3,-2z"/>
  <path id="svg_418" fill="#59e6da" d="m96,105l1,1l-1,-1z"/>
  <path id="svg_419" fill="#8869cf" d="m12,106l1,1l-1,-1z"/>
  <path id="svg_420" fill="#3347bb" d="m30.6667,106.333c-0.4445,0.445 0.6111,0.389 0.6666,0.334c0.4445,-0.445 -0.6111,-0.389 -0.6666,-0.334z"/>
  <path stroke="null" style="vector-effect: non-scaling-stroke;" id="svg_421" fill="#0019ae" d="m32,106l-1,2l2,0c0,-1.853 0.2997,-1.35 -1,-2z"/>
  <path id="svg_422" fill="#7796e6" d="m39,106l1,1l-1,-1z"/>
  <path id="svg_423" fill="#003ed5" d="m44.6667,106.333c-0.4445,0.445 0.6111,0.389 0.6666,0.334c0.4445,-0.445 -0.6111,-0.389 -0.6666,-0.334z"/>
  <path id="svg_424" fill="#deeaf8" d="m47,108l3,-1c-1.7782,-0.955 -2.0214,-0.766 -3,1z"/>
  <path id="svg_425" fill="#1369db" d="m52,106c1.5061,0.683 2.3148,0.826 4,1c-1.506,-0.683 -2.3148,-0.826 -4,-1z"/>
  <path id="svg_426" fill="#649be7" d="m56,106l1,1l-1,-1z"/>
  <path id="svg_427" fill="#a6b4f0" d="m74,106l1,1l-1,-1z"/>
  <path id="svg_428" fill="#6fdce8" d="m89,106l1,1l-1,-1z"/>
  <path id="svg_429" fill="#b7ecf3" d="m90,106l1,1l-1,-1z"/>
  <path stroke="null" id="svg_430" fill="#abf2ec" d="m90.403483,101.575715l0,4.102079c3.177648,-1.117816 2.827448,-0.748629 3.886793,-4.102079l-3.886793,0z"/>
  <path stroke="null" transform="rotate(86.20088958740234 94.44837951660155,105.49443054199219) " id="svg_431" fill="#9cf1ea" d="m95.941011,104.994432l-2.985273,1l2.985273,-1z"/>
  <path id="svg_432" fill="#5fe6aa" d="m109,106l1,1l-1,-1z"/>
  <path id="svg_433" fill="#936fdc" d="m13,107l1,1l-1,-1z"/>
  <path id="svg_434" fill="#5450db" d="m22,107c1.2484,0.685 1.5484,0.749 3,1c-1.2484,-0.685 -1.5484,-0.749 -3,-1z"/>
  <path stroke="null" id="svg_435" fill="#8683da" d="m25.635081,104.929803l-0.925357,4.070197l1.850713,0c0,-3.771037 0.277329,-2.747383 -0.925357,-4.070197z"/>
  <path stroke="null" id="svg_436" fill="#495dc8" d="m28.575155,104.822931l-1.575155,4.177069l3.15031,0c0,-3.870055 0.472074,-2.819522 -1.575155,-4.177069z"/>
  <path id="svg_437" fill="#b4bbed" d="m30.3333,107.667c-0.0555,0.055 -0.1111,1.111 0.3334,0.666c0.0555,-0.055 0.1111,-1.111 -0.3334,-0.666z"/>
  <path id="svg_438" fill="#c0d1f4" d="m38,107l1,1l-1,-1z"/>
  <path id="svg_439" fill="#5f54e1" d="m45,107l1,1l-1,-1z"/>
  <path id="svg_440" fill="#1933d6" d="m46,107l1,1l-1,-1z"/>
  <path id="svg_441" fill="#96bbed" d="m54.6667,107.333c-0.4445,0.445 0.6111,0.389 0.6666,0.334c0.4445,-0.445 -0.6111,-0.389 -0.6666,-0.334z"/>
  <path id="svg_442" fill="#2f8ddd" d="m68.6667,107.333c-0.4445,0.445 0.6111,0.389 0.6666,0.334c0.4445,-0.445 -0.6111,-0.389 -0.6666,-0.334z"/>
  <path id="svg_443" fill="#687ee7" d="m76,107l1,1l-1,-1z"/>
  <path id="svg_444" fill="#b6edf3" d="m84,107l1,1l-1,-1z"/>
  <path id="svg_445" fill="#27dfcf" d="m93.6667,107.333c-0.4445,0.445 0.6111,0.389 0.6666,0.334c0.4445,-0.445 -0.6111,-0.389 -0.6666,-0.334z"/>
  <path id="svg_446" fill="#9d7cde" d="m15,108l1,1l-1,-1z"/>
  <path id="svg_447" fill="#3a349e" d="m21.3333,108.667c-0.0555,0.055 -0.1111,1.111 0.3334,0.666c0.0555,-0.055 0.1111,-1.111 -0.3334,-0.666z"/>
  <path id="svg_448" fill="#b9b8f2" d="m22,108c1.1394,1.015 1.6116,1.309 3,2c-0.9802,-1.783 -0.9076,-1.594 -3,-2z"/>
  <path stroke="null" id="svg_449" fill="#8491dc" d="m31,107.696969c0.6836,1.659798 0.8048,1.866748 2,3.151515l0,-3.151515l-2,0z"/>
  <path id="svg_450" fill="#baccf1" d="m34,108l1,1l-1,-1z"/>
  <path id="svg_451" fill="#6a8fe1" d="m38,108l1,1l-1,-1z"/>
  <path id="svg_452" fill="#87a1ec" d="m78,108l1,1l-1,-1z"/>
  <path id="svg_453" fill="#d7f6f4" d="m93,108c1.7691,0.779 3.0359,0.912 5,1c-1.769,-0.779 -3.0359,-0.912 -5,-1z"/>
  <path id="svg_454" fill="#5ce5b8" d="m108,108l1,1l-1,-1z"/>
  <path id="svg_455" fill="#6f48c7" d="m17,109l1,1l-1,-1z"/>
  <path id="svg_456" fill="#310e96" d="m18,109c1.2484,0.685 1.5484,0.749 3,1c-1.2484,-0.685 -1.5484,-0.749 -3,-1z"/>
  <path id="svg_457" fill="#8a87e9" d="m22,109c0.4057,2.092 0.2167,2.02 2,3c-0.6913,-1.388 -0.9846,-1.861 -2,-3z"/>
  <path id="svg_458" fill="#909dde" d="m27,109l1,1l-1,-1z"/>
  <path id="svg_459" fill="#c9cfef" d="m28,109l1,1l-1,-1z"/>
  <path id="svg_460" fill="#8eb9ec" d="m80,109l1,1l-1,-1z"/>
  <path id="svg_461" fill="#ace9f1" d="m87,109l1,1l-1,-1z"/>
  <path id="svg_462" fill="#76e8dd" d="m100,109l1,1l-1,-1z"/>
  <path id="svg_463" fill="#53e4da" d="m103.667,109.333c-0.445,0.445 0.611,0.389 0.666,0.334c0.445,-0.445 -0.611,-0.389 -0.666,-0.334z"/>
  <path id="svg_464" fill="#b0a1d9" d="m20.6667,110.333c-0.4445,0.445 0.6111,0.389 0.6666,0.334c0.4445,-0.445 -0.6111,-0.389 -0.6666,-0.334z"/>
  <path id="svg_465" fill="#6a7ddb" d="m30,110l1,1l-1,-1z"/>
  <path id="svg_466" fill="#0c2bca" d="m31,110l1,1l-1,-1z"/>
  <path id="svg_467" fill="#399ee0" d="m83.6667,110.333c-0.4445,0.445 0.6111,0.389 0.6666,0.334c0.4445,-0.445 -0.6111,-0.389 -0.6666,-0.334z"/>
  <path id="svg_468" fill="#0f8dd9" d="m85,110c1.2483,0.685 1.5484,0.749 3,1c-1.2484,-0.685 -1.5484,-0.749 -3,-1z"/>
  <path id="svg_469" fill="#6ebfe3" d="m88,110l1,1l-1,-1z"/>
  <path id="svg_470" fill="#5ae5c1" d="m105.667,110.333c-0.445,0.445 0.611,0.389 0.666,0.334c0.445,-0.445 -0.611,-0.389 -0.666,-0.334z"/>
  <path id="svg_471" fill="#a5f1df" d="m104.667,111.333c-0.445,0.445 0.611,0.389 0.666,0.334c0.445,-0.445 -0.611,-0.389 -0.666,-0.334z"/>
  <path stroke="null" transform="rotate(18.8212833404541 86.3074417114258,105.84754180908205) " id="svg_472" fill="#18cada" d="m80.777217,103.662041c2.12167,2.378962 4.352976,3.249053 8.295333,4.371002l2.765111,-4.371002c-4.239191,0.744731 -6.86024,0.843429 -11.060443,0z"/>
  <path stroke="null" id="svg_473" fill="#90e9e4" d="m89.301457,106.097331c1.106755,0.372544 1.701026,0.450489 2.939392,0.545452c-1.106681,-0.372544 -1.701026,-0.450489 -2.939392,-0.545452z"/>
 </g>
</svg>